<?xml version="1.0" encoding="iso-8859-1"?>
<!-- Uploaded to: SVG Repo, www.svgrepo.com, Generator: SVG Repo Mixer Tools -->
<!DOCTYPE svg PUBLIC "-//W3C//DTD SVG 1.1//EN" "http://www.w3.org/Graphics/SVG/1.1/DTD/svg11.dtd">
<svg fill="#000000" version="1.1" id="Capa_1" xmlns="http://www.w3.org/2000/svg" xmlns:xlink="http://www.w3.org/1999/xlink" 
	 width="80px" height="80px" viewBox="0 0 93.431 93.431"
	 xml:space="preserve">
<g>
	<g>
		<path d="M85.23,30.563H49.324c-1.46,0-2.56-0.18-3.329-0.383c4.405-8.327,5.538-14.42,3.366-18.129
			c-1.925-3.288-5.584-3.327-5.739-3.327c-6.046,0.001-8.76,7.112-9.105,8.093c-4.734,10.2-10.091,13.494-14.086,14.337
			c-0.039-2.746-2.277-4.969-5.032-4.969H5.04c-2.779,0-5.04,2.26-5.04,5.039v46.941c0,2.779,2.261,5.039,5.04,5.039h10.358
			c2.611,0,4.74-2.004,4.99-4.549c1.204,0.354,2.044,0.83,3.08,1.428c1.31,0.757,2.94,1.699,5.79,2.746
			c7.622,2.801,20.852,1.654,21.409,1.604l0.163-0.023c6.845-1.285,7.846-5.883,8.506-8.924c0.245-1.129,0.48-2.196,0.919-2.805
			c2.924-2.999,4.383-6.244,4.741-9.012c0.232-2.363,0.152-3.52,0.529-5.395c0.537-1.752,1.73-6.951-1.074-11.317
			c7.377-0.017,20.465-0.045,22.062-0.045c2.77,0,5.32-3.304,5.32-3.304c1-1.36,1.597-3.029,1.597-4.844
			C93.43,34.242,89.751,30.563,85.23,30.563z M14.839,77.604h-9.24V31.783h9.239L14.839,77.604L14.839,77.604z"/>
		<circle cx="10.226" cy="37.477" r="3.266"/>
	</g>
</g>
</svg>